<svg xmlns="http://www.w3.org/2000/svg" viewBox="0 0 64 64" role="img" aria-label="HumanityFirst Global Relief logo">
  <defs>
    <linearGradient id="grad" x1="0%" y1="0%" x2="100%" y2="100%">
      <stop offset="0%" stop-color="#0ea5e9" />
      <stop offset="100%" stop-color="#2563eb" />
    </linearGradient>
  </defs>
  <rect width="64" height="64" rx="12" fill="url(#grad)" />
  <circle cx="32" cy="22" r="9" fill="#e0f2fe" />
  <path d="M18 46c2.5-7 8-12 14-12s11.5 5 14 12" fill="none" stroke="#e0f2fe" stroke-width="4" stroke-linecap="round" />
  <path d="M24 30c0 2.5-2 4.5-4.5 4.5S15 32.5 15 30s2-4.5 4.5-4.5S24 27.5 24 30Zm30 0c0 2.5-2 4.5-4.5 4.5S45 32.5 45 30s2-4.5 4.5-4.5S54 27.5 54 30Z" fill="#e0f2fe" opacity="0.85" />
</svg>
